<svg width="32" height="32" viewBox="0 0 24 24" fill="none" xmlns="http://www.w3.org/2000/svg">
  <!-- Outer bezel -->
  <circle cx="12" cy="12" r="11.5" fill="#1877f2" />
  <circle cx="12" cy="12" r="10.5" fill="#4a9af5" />
  <circle cx="12" cy="12" r="9.5" stroke="rgba(255,255,255,0.25)" stroke-width="0.5" fill="none" />
  <!-- Tick marks -->
  <line x1="12" y1="2" x2="12" y2="4" stroke="white" stroke-width="1.2" stroke-linecap="round" />
  <line x1="22" y1="12" x2="20" y2="12" stroke="rgba(255,255,255,0.6)" stroke-width="0.8" stroke-linecap="round" />
  <line x1="12" y1="22" x2="12" y2="20" stroke="rgba(255,255,255,0.6)" stroke-width="0.8" stroke-linecap="round" />
  <line x1="2" y1="12" x2="4" y2="12" stroke="rgba(255,255,255,0.6)" stroke-width="0.8" stroke-linecap="round" />
  <!-- North needle — red -->
  <polygon points="12,3.5 13.8,11 12,9.5 10.2,11" fill="#e74c3c" />
  <polygon points="12,3.5 12,9.5 10.2,11" fill="#c0392b" />
  <!-- South needle — white -->
  <polygon points="12,20.5 10.2,13 12,14.5 13.8,13" fill="white" />
  <polygon points="12,20.5 12,14.5 13.8,13" fill="#dce1e6" />
  <!-- East/West needles — subtle -->
  <polygon points="20.5,12 13,10.5 14.5,12 13,13.5" fill="rgba(255,255,255,0.3)" />
  <polygon points="3.5,12 11,10.5 9.5,12 11,13.5" fill="rgba(255,255,255,0.3)" />
  <!-- Center pin -->
  <circle cx="12" cy="12" r="2" fill="#1877f2" />
  <circle cx="12" cy="12" r="1.2" fill="white" />
</svg>
